#!OML:ASF F:\VICON\USERDATA\INSTALL\rory3\rory3.ASF
:FULLY-SPECIFIED
:DEGREES
358
root -1.32785 18.3755 11.7053 -180.106 73.6451 179.792
lowerback 11.0036 5.17228 3.68945
upperback 1.93175 7.36831 -0.0804108
thorax -3.63643 3.64538 -3.13785
lowerneck -13.5227 3.38843 -8.68666
upperneck 44.8254 11.9006 3.13878
head 18.6207 4.95378 5.66597
rclavicle 7.9812e-014 -3.97569e-016
rhumerus -23.5124 -2.92896 -81.4073
rradius 40.408
rwrist 1.74795
rhand -16.6823 9.08029
rfingers 7.12502
rthumb 9.54185 -20.6837
lclavicle 7.9812e-014 -3.97569e-016
lhumerus -42.022 8.47419 79.7043
lradius 30.0578
lwrist -8.85919
lhand -15.3168 25.88
lfingers 7.12502
lthumb 10.8592 55.5792
rfemur 1.02408 -7.27687 19.8255
rtibia 38.3168
rfoot 2.50907 -1.9441
rtoes -5.09902
lfemur -17.0048 -2.34501 -27.2389
ltibia 25.2105
lfoot 7.17096 -6.50534
ltoes 1.65583
359
root -1.46105 18.3654 11.7503 -180.037 73.8279 179.679
lowerback 11.1084 5.16078 3.78556
upperback 1.9293 7.36728 -0.110862
thorax -3.6805 3.64231 -3.23287
lowerneck -13.4781 3.36295 -8.79861
upperneck 44.7914 11.8264 3.2262
head 18.5736 4.91793 5.70312
rclavicle 8.63222e-014 -1.98785e-014
rhumerus -22.9329 -2.68039 -81.4685
rradius 40.351
rwrist 2.24692
rhand -16.4074 9.45296
rfingers 7.12502
rthumb 9.80707 -20.2987
lclavicle 8.63222e-014 -1.98785e-014
lhumerus -42.0016 8.62468 79.6861
lradius 30.1324
lwrist -8.71323
lhand -15.4872 25.9315
lfingers 7.12502
lthumb 10.6949 55.6393
rfemur 1.68446 -6.80689 20.0769
rtibia 36.3403
rfoot 0.807261 -2.35997
rtoes -6.28272
lfemur -17.7517 -2.60569 -27.0562
ltibia 25.2921
lfoot 7.70386 -5.91051
ltoes 6.36646
360
root -1.59678 18.3551 11.7927 -180.001 73.9904 179.539
lowerback 11.2138 5.16509 3.97991
upperback 1.94267 7.39834 -0.163492
thorax -3.69038 3.6556 -3.40695
lowerneck -13.4392 3.29597 -8.86059
upperneck 44.777 11.7212 3.23501
head 18.5592 4.86647 5.69578
rclavicle -6.95746e-016 -3.97569e-016
rhumerus -22.3816 -2.32285 -81.5251
rradius 40.3887
rwrist 2.34734
rhand -16.3713 9.44887
rfingers 7.12502
rthumb 9.84199 -20.3011
lclavicle -6.95746e-016 -3.97569e-016
lhumerus -41.9583 8.79836 79.6499
lradius 30.2836
lwrist -8.88824
lhand -15.4916 25.609
lfingers 7.12502
lthumb 10.6905 55.317
rfemur 2.36449 -6.32336 20.3052
rtibia 34.4682
rfoot -1.02118 -2.79485
rtoes -6.59874
lfemur -18.4861 -2.91664 -26.8819
ltibia 25.3377
lfoot 8.26455 -5.03169
ltoes 11.8481
361
root -1.73414 18.3507 11.8361 -180.057 74.2181 179.32
lowerback 11.3659 5.22877 4.15824
upperback 1.95604 7.50832 -0.227625
thorax -3.71928 3.70753 -3.59903
lowerneck -13.3804 3.15521 -8.86853
upperneck 44.725 11.5356 3.10513
head 18.5472 4.77485 5.59955
rclavicle 7.95139e-014 2.06736e-014
rhumerus -21.919 -1.87147 -81.5982
rradius 40.6063
rwrist 1.9967
rhand -16.6001 8.74884
rfingers 7.12502
rthumb 9.62118 -21.0115
lclavicle 7.95139e-014 2.06736e-014
lhumerus -41.8234 8.79619 79.6455
lradius 30.398
lwrist -9.06422
lhand -15.1734 25.4783
lfingers 7.12502
lthumb 10.9975 55.1702
rfemur 2.89322 -5.8811 20.4994
rtibia 32.8149
rfoot -2.31572 -3.59494
rtoes -9.38744
lfemur -19.162 -2.77804 -26.8086
ltibia 25.2682
lfoot 8.73424 -4.72983
ltoes 14.7776
362
root -1.87679 18.346 11.8824 -179.952 74.4761 179.238
lowerback 11.5382 5.25761 4.26362
upperback 1.97093 7.56773 -0.223367
thorax -3.78021 3.73418 -3.67749
lowerneck -13.3965 3.07404 -8.87943
upperneck 44.7145 11.4813 2.9386
head 18.5743 4.72346 5.51723
rclavicle 4.4329e-014 -5.1684e-015
rhumerus -21.337 -1.41431 -81.6063
rradius 40.6752
rwrist 1.82489
rhand -16.5331 8.6387
rfingers 7.12502
rthumb 9.68589 -21.1186
lclavicle 4.4329e-014 -5.1684e-015
lhumerus -41.6793 8.84056 79.763
lradius 30.5657
lwrist -8.80368
lhand -15.0172 25.5326
lfingers 7.12502
lthumb 11.1482 55.2165
rfemur 3.0692 -5.37429 20.7723
rtibia 31.5366
rfoot -3.53476 -4.65814
rtoes -13.7732
lfemur -19.7567 -2.74551 -26.657
ltibia 24.9126
lfoot 9.38014 -4.46557
ltoes 16.8549
363
root -2.0249 18.3302 11.9263 -179.589 74.6128 179.401
lowerback 11.6931 5.09313 4.36856
upperback 2.03557 7.37802 -0.0679089
thorax -3.822 3.64002 -3.56385
lowerneck -13.6739 3.12006 -9.2913
upperneck 44.7885 11.7405 2.90208
head 18.655 4.7297 5.63531
rclavicle -9.69075e-014 -2.78299e-015
rhumerus -20.5498 -0.553692 -81.5465
rradius 40.6323
rwrist 1.84485
rhand -16.5142 8.63587
rfingers 7.12502
rthumb 9.70405 -21.1206
lclavicle -9.69075e-014 -2.78299e-015
lhumerus -41.6031 9.38564 79.9325
lradius 30.8555
lwrist -8.46075
lhand -15.0347 25.6607
lfingers 7.12502
lthumb 11.1312 55.3455
rfemur 3.03728 -4.90243 21.084
rtibia 30.4614
rfoot -4.77222 -5.30681
rtoes -14.4643
lfemur -20.3281 -2.85299 -26.515
ltibia 24.4137
lfoot 9.98398 -4.49962
ltoes 16.2778
364
root -2.17375 18.2967 11.9683 -179.112 74.6997 179.676
lowerback 11.8009 4.84369 4.52789
upperback 2.19407 7.08412 0.13801
thorax -3.74794 3.50121 -3.40255
lowerneck -14.2896 3.17513 -9.9584
upperneck 44.9521 12.1172 2.95483
head 18.8459 4.72636 5.8892
rclavicle 3.83654e-014 4.53229e-014
rhumerus -19.4523 0.456311 -81.4242
rradius 40.3907
rwrist 1.83714
rhand -16.7431 8.57633
rfingers 7.12502
rthumb 9.48318 -21.1903
lclavicle 3.83654e-014 4.53229e-014
lhumerus -41.3582 10.0369 80.2188
lradius 31.1806
lwrist -8.13359
lhand -15.37 25.6737
lfingers 7.12502
lthumb 10.8079 55.3756
rfemur 2.87714 -4.43737 21.4025
rtibia 29.5806
rfoot -5.70256 -5.57054
rtoes -12.6463
lfemur -20.8593 -2.14724 -26.6976
ltibia 23.8207
lfoot 10.2549 -6.23797
ltoes 7.2622
365
root -2.31754 18.3022 12.0087 -178.646 74.8822 179.919
lowerback 11.8919 4.7571 4.69088
upperback 2.26917 7.00041 0.24369
thorax -3.72034 3.46193 -3.37647
lowerneck -14.5299 3.12308 -10.2942
upperneck 44.9861 12.2011 2.89388
head 18.9165 4.67397 5.94997
rclavicle 1.88845e-014 -1.98785e-014
rhumerus -18.555 0.941007 -81.2868
rradius 40.0777
rwrist 1.7884
rhand -16.5894 8.81322
rfingers 7.12502
rthumb 9.63157 -20.9466
lclavicle 1.88845e-014 -1.98785e-014
lhumerus -41.0862 10.0222 80.6005
lradius 31.4152
lwrist -7.79361
lhand -15.843 25.8142
lfingers 7.12502
lthumb 10.3516 55.5394
rfemur 2.66221 -4.13367 21.6391
rtibia 28.6956
rfoot -6.34271 -5.72268
rtoes -12.0832
lfemur -21.4042 -1.72052 -26.6437
ltibia 23.2548
lfoot 10.916 -6.79301
ltoes 5.82693
366
root -2.46226 18.2967 12.0472 -178.359 75.032 179.944
lowerback 11.92 4.80018 4.94232
upperback 2.29077 7.08903 0.218599
thorax -3.67155 3.50565 -3.55198
lowerneck -14.4467 2.96422 -10.3668
upperneck 44.9526 11.9694 2.85186
head 18.8998 4.5674 5.89653
rclavicle -4.11484e-014 1.03368e-014
rhumerus -17.9972 0.922428 -81.1301
rradius 39.9375
rwrist 1.75219
rhand -16.2954 8.88391
rfingers 7.12502
rthumb 9.91515 -20.8626
lclavicle -4.11484e-014 1.03368e-014
lhumerus -40.6973 9.6049 80.9366
lradius 31.4652
lwrist -7.63051
lhand -16.0429 25.9752
lfingers 7.12502
lthumb 10.1588 55.71
rfemur 2.37734 -4.08872 21.7391
rtibia 27.8627
rfoot -6.98696 -5.95044
rtoes -12.7672
lfemur -22.0115 -1.3297 -26.6962
ltibia 22.6983
lfoot 11.6136 -7.50395
ltoes 3.46015
367
root -2.60582 18.2993 12.087 -177.808 75.1501 180.262
lowerback 11.9286 4.8074 5.2556
upperback 2.33182 7.13846 0.221172
thorax -3.59064 3.53163 -3.7242
lowerneck -14.3434 2.81524 -10.6118
upperneck 44.8861 11.7318 2.93897
head 18.8272 4.45072 5.9231
rclavicle 2.73329e-014 7.15625e-015
rhumerus -17.4452 0.861712 -81.0074
rradius 39.7571
rwrist 1.73815
rhand -16.4099 9.00983
rfingers 7.12502
rthumb 9.80467 -20.7419
lclavicle 2.73329e-014 7.15625e-015
lhumerus -40.2662 9.43379 81.182
lradius 31.461
lwrist -7.59908
lhand -16.0792 26.0769
lfingers 7.12502
lthumb 10.1237 55.8134
rfemur 2.08791 -4.03558 21.9657
rtibia 27.0032
rfoot -7.39557 -6.43207
rtoes -13.9113
lfemur -22.6252 -1.5841 -26.4112
ltibia 22.2531
lfoot 12.7053 -7.07632
ltoes 6.4366
368
root -2.74728 18.3153 12.1298 -177.16 75.3065 180.725
lowerback 12.0277 4.77557 5.41899
upperback 2.32865 7.12746 0.303595
thorax -3.64022 3.52301 -3.73744
lowerneck -14.21 2.70248 -10.7756
upperneck 44.8125 11.6047 2.84433
head 18.7633 4.36687 5.86783
rclavicle -8.15017e-015 -1.82882e-014
rhumerus -16.9069 1.01115 -80.9262
rradius 39.417
rwrist 1.77513
rhand -16.6967 9.09425
rfingers 7.12502
rthumb 9.52799 -20.6703
lclavicle -8.15017e-015 -1.82882e-014
lhumerus -39.9853 9.47261 81.3642
lradius 31.4783
lwrist -7.54643
lhand -16.3707 25.8738
lfingers 7.12502
lthumb 9.8425 55.6237
rfemur 1.70211 -3.99129 22.2483
rtibia 26.3918
rfoot -7.61534 -6.87356
rtoes -13.6366
lfemur -23.1241 -2.10387 -25.9105
ltibia 21.7421
lfoot 13.9169 -5.82551
ltoes 12.4226
369
root -2.8874 18.3217 12.1702 -176.335 75.3892 181.38
lowerback 12.0982 4.72556 5.69745
upperback 2.32354 7.10356 0.340846
thorax -3.6575 3.50802 -3.85543
lowerneck -14.1486 2.53868 -10.7776
upperneck 44.8044 11.3769 2.73204
head 18.7838 4.25769 5.77589
rclavicle -6.26172e-014 1.59028e-015
rhumerus -16.3941 0.788703 -80.9013
rradius 38.9944
rwrist 2.20124
rhand -16.8113 9.02406
rfingers 7.12502
rthumb 9.41738 -20.7456
lclavicle -6.26172e-014 1.59028e-015
lhumerus -39.6873 9.48212 81.4371
lradius 31.5793
lwrist -7.32625
lhand -16.326 25.8679
lfingers 7.12502
lthumb 9.88569 55.6158
rfemur 1.35048 -4.00709 22.5556
rtibia 25.691
rfoot -7.74385 -7.07602
rtoes -12.4962
lfemur -23.6716 -2.25309 -25.5939
ltibia 21.3983
lfoot 14.5156 -5.8647
ltoes 11.8332
370
root -3.02956 18.3029 12.2125 -174.165 75.4174 183.363
lowerback 12.1221 4.67336 6.27183
upperback 2.28467 7.1196 0.504668
thorax -3.66123 3.50998 -4.0057
lowerneck -14.0599 2.32921 -10.8417
upperneck 44.8216 11.1071 2.62273
head 18.8148 4.1238 5.69069
rclavicle -4.96962e-014 -1.03368e-014
rhumerus -15.9997 0.572149 -80.7796
rradius 38.6422
rwrist 2.43112
rhand -16.8281 8.97861
rfingers 7.12502
rthumb 9.40119 -20.7917
lclavicle -4.96962e-014 -1.03368e-014
lhumerus -39.4735 9.56831 81.5608
lradius 31.7709
lwrist -7.11836
lhand -16.2925 25.6464
lfingers 7.12502
lthumb 9.91797 55.3927
rfemur 0.723961 -3.89726 23.2813
rtibia 25.3333
rfoot -8.00836 -7.41334
rtoes -11.8309
lfemur -24.2784 -1.31406 -25.453
ltibia 20.9579
lfoot 14.091 -9.00501
ltoes -1.98161
371
root -3.17591 18.337 12.2549 -171.697 75.4314 185.483
lowerback 12.0787 4.63084 6.76621
upperback 2.15402 7.13765 0.717382
thorax -3.74071 3.50687 -4.06052
lowerneck -13.7542 2.15882 -11.025
upperneck 44.7041 10.8329 2.58222
head 18.6824 3.99755 5.62514
rclavicle -1.80894e-014 3.73715e-014
rhumerus -15.7195 0.622555 -80.6066
rradius 38.3859
rwrist 2.2649
rhand -16.8891 8.94761
rfingers 7.12502
rthumb 9.34233 -20.8254
lclavicle -1.80894e-014 3.73715e-014
lhumerus -39.3715 9.66845 81.7942
lradius 31.9683
lwrist -7.20424
lhand -16.3903 25.6545
lfingers 7.12502
lthumb 9.82363 55.4054
rfemur -0.160544 -3.85892 24.0426
rtibia 25.0681
rfoot -8.12412 -7.76457
rtoes -11.7086
lfemur -25.0444 -3.41447 -23.7007
ltibia 20.5578
lfoot 15.8288 -4.01969
ltoes 15.8674
